PathFileType	4	(X/Y/Z)	C:/Users/beibeiliu/ov580/test_trc/User3\sequence.29_training_dense_left.trc
DataRate	CameraRate	NumFrames	NumMarkers	Units	OrigDataRate	OrigDataStartFrame	OrigNumFrames
120	120	17	19	mm	120	1	86
Frame#	Time	ThumbCMC			ThumbMCP			ThumbIP			ThumbTip			IndexMCP			IndexPIP			IndexTip			MiddleMCP			MiddlePIP			MiddleTip			RingMCP			RingPIP			RingTip			PinkyMCP			PinkyPIP			PinkyTip			BackHand1			BackHand2			BackHand3	
		X0	Y0	Z0	X1	Y1	Z1	X2	Y2	Z2	X3	Y3	Z3	X4	Y4	Z4	X5	Y5	Z5	X6	Y6	Z6	X7	Y7	Z7	X8	Y8	Z8	X9	Y9	Z9	X10	Y10	Z10	X11	Y11	Z11	X12	Y12	Z12	X13	Y13	Z13	X14	Y14	Z14	X15	Y15	Z15	X16	Y16	Z16	X17	Y17	Z17	X18	Y18	Z18	
0	0	-152.038	35.7945	-8.24651	-136.104	40.7086	-29.9153	-121.451	49.2098	-55.3036	-108.898	55.4378	-73.7115	-114.704	-16.2176	-61.3411	-95.0374	-22.3006	-75.5229	-74.8639	-34.0615	-94.5117	-116.367	-33.8729	-60.9646	-96.9568	-42.2197	-75.9039	-74.9664	-52.234	-94.8005	-122.556	-54.209	-44.2494	-109.231	-66.5632	-52.6269	-90.2004	-83.3051	-62.2409	-133.976	-65.2339	-23.3592	-121.538	-75.742	-29.8168	-105.855	-88.5069	-43.2276	-166.364	-29.1259	-22.1536	-187.794	-14.6569	1.74141	-166.696	6.00392	-22.4199	
1	0.00833333	-174.319	34.3574	-12.1697	-165.789	44.307	-37.0146	-153.804	50.084	-61.0364	-147.172	62.2431	-82.1658	-125.662	-2.76092	-67.196	-104.873	-4.21374	-84.2462	-85.0282	-8.31624	-101.623	-119.783	-18.7275	-67.1252	-103.583	-19.7601	-79.8082	-79.6075	-24.1456	-102.126	-120.128	-42.5078	-44.2779	-101.756	-44.975	-56.3073	-76.2773	-56.636	-70.3882	-126.41	-48.7816	-23.6199	-105.069	-59.3412	-35.5041	-92.5791	-67.4781	-45.551	-168.565	-30.7896	-17.9394	-189.449	-22.9146	0.372093	-178.527	3.09092	-24.4115	
2	0.0166667	-193.746	27.4169	-12.2615	-190.868	36.9412	-36.9473	-184.982	47.0684	-69.6203	-182.511	55.83	-83.6923	-138.538	9.59613	-76.7969	-122.24	10.2128	-89.5499	-107.406	14.949	-109.633	-130.273	-11.2709	-70.0382	-112.945	-5.05691	-87.7459	-93.976	0.0306233	-110.856	-122.143	-25.3062	-50.189	-97.6831	-26.5341	-64.3818	-75.4052	-30.3929	-76.7618	-119.641	-38.0399	-28.5925	-99.3479	-39.8661	-38.8192	-83.3105	-41.8753	-51.0865	-166.02	-33.7872	-19.0518	-185.759	-29.7778	1.95871	-188.429	-5.50765	-21.9104	
3	0.025	-207.903	13.3515	-16.5934	-208.219	20.5397	-38.8478	-210.199	29.8701	-67.1854	-213.826	39.17	-83.0111	-154.289	5.18506	-78.9476	-142.539	13.9806	-100.022	-127.427	15.6868	-114.03	-143.05	-8.72965	-73.3038	-126.328	-0.508601	-95.4	-110.46	6.49819	-118.667	-125.285	-19.0405	-56.4066	-105.075	-15.7779	-69.6463	-88.3335	-12.6064	-83.3865	-122.613	-26.5949	-33.0885	-103.712	-24.883	-47.2404	-86.1417	-26.8957	-59.4109	-162.559	-35.9712	-21.3002	-178.735	-41.19	4.73267	-192.968	-16.9202	-23.3575	
4	0.0333333	-215.158	-5.35353	-7.60981	-223.212	0.180573	-36.9129	-232.484	7.49799	-62.4685	-238.97	14.2819	-81.0527	-173.949	-6.60524	-78.5026	-163.505	0.610966	-98.1838	-153.43	7.41511	-120.521	-155.029	-15.124	-80.7071	-143.995	-5.08762	-101.452	-134.19	1.01161	-123.616	-130.824	-24.0407	-56.1872	-116.475	-16.1696	-77.0937	-97.2119	-10.2056	-92.9598	-121.729	-28.5138	-36.3795	-112.467	-21.4811	-51.4126	-94.5663	-21.6906	-66.4067	-163.728	-45.7296	-19.4742	-179.794	-48.3259	4.448	-196.207	-31.1249	-19.0034	
5	0.0416667	-221.746	-23.2929	-6.12938	-233.308	-21.1045	-29.4819	-243.757	-18.007	-58.4924	-255.867	-12.5936	-75.2238	-188.862	-25.3102	-75.6524	-175.699	-19.2099	-100.406	-172.017	-13.5513	-121.217	-164.599	-32.7029	-77.9561	-160.796	-24.0744	-100.056	-150.277	-18.0188	-126.56	-140.651	-36.4597	-57.4748	-127.035	-29.4517	-78.8348	-112.96	-23.3518	-95.5508	-132.13	-37.7045	-39.2888	-123.235	-31.0263	-53.1192	-106.072	-28.2937	-70.2941	-171.659	-56.4811	-13.9972	-179.184	-60.165	12.1586	-204.741	-45.8847	-13.279	
6	0.05	-231.086	-40.3581	1.73415	-245.027	-41.067	-21.4215	-254.994	-38.4202	-44.5737	-266.055	-37.4928	-64.3775	-196.114	-48.477	-73.5027	-195.216	-43.0324	-93.5754	-186.719	-41.0571	-117.552	-176.264	-54.2988	-74.256	-176.293	-47.819	-94.8904	-169.771	-44.5567	-127.155	-156.867	-53.9976	-55.4576	-142.869	-49.1328	-76.6439	-130.336	-44.3331	-102.507	-139.149	-53.2558	-37.666	-129.651	-47.7206	-58.0063	-118.429	-46.3102	-74.4931	-177.768	-68.6959	-7.42208	-181.245	-72.8278	21.3726	-208.437	-64.6447	-2.78387	
7	0.0583333	-236.827	-55.1226	15.5953	-251.37	-57.7095	-8.23951	-266.758	-61.9153	-36.7384	-278.357	-60.2405	-52.7365	-208.108	-71.389	-64.4805	-206.326	-67.8317	-90.8111	-199.265	-68.6212	-110.585	-188.705	-75.9554	-67.0283	-187.317	-72.2385	-89.3129	-186.872	-69.9234	-124.534	-166.152	-73.8035	-51.4799	-151.774	-70.6825	-72.4973	-142.558	-67.4791	-95.6463	-147.408	-71.7601	-36.1877	-141.543	-67.5454	-52.1965	-129.326	-66.1231	-75.8805	-178.001	-85.4024	1.76689	-184.025	-85.3242	27.8772	-216.25	-80.4204	5.56181	
8	0.0666667	-239.291	-66.6763	22.1187	-254.638	-71.3345	-0.733302	-267.682	-74.5304	-24.7096	-281.502	-76.5188	-45.9171	-215.517	-86.5931	-52.9543	-213.081	-85.7455	-82.1416	-212.047	-85.1454	-107.664	-196.566	-91.9701	-55.051	-192.538	-90.246	-84.3411	-193.82	-88.4982	-113.647	-169.992	-88.5173	-45.2247	-159.977	-86.3645	-65.7233	-153.467	-83.5018	-93.2255	-153.387	-84.5375	-25.3186	-148.253	-81.7161	-45.1343	-136.66	-82.2997	-68.0206	-183.802	-96.447	7.8554	-186.164	-94.797	39.3615	-217.469	-90.1097	16.3808	
9	0.075	-237.795	-70.4429	29.8256	-259.296	-76.2085	6.57443	-273.543	-79.7127	-15.8906	-280.32	-78.9177	-36.6049	-217.682	-89.9068	-48.8362	-213.71	-89.7013	-71.2696	-211.752	-90.8682	-98.156	-199.24	-95.6759	-52.0806	-198.761	-93.572	-76.848	-197.025	-92.4132	-106.592	-174.075	-92.2824	-42.0702	-161.257	-90.7722	-58.9175	-154.217	-87.1339	-86.0035	-158.894	-87.141	-20.5302	-147.701	-85.0817	-42.5773	-140.119	-85.3344	-62.4016	-181.854	-101.253	14.2791	-186.238	-100.01	40.6937	-219.048	-94.2791	22.6504	
10	0.0833333	-239.088	-70.0252	29.903	-256.423	-74.2532	9.1059	-271.035	-77.5204	-16.34	-283.052	-78.3929	-35.9541	-213.986	-86.4281	-47.9092	-214.954	-84.8767	-71.4123	-209.457	-86.2546	-98.6628	-196.894	-92.5366	-52.0784	-196.767	-89.327	-74.2186	-192.346	-89.274	-104.52	-167.441	-88.9866	-36.6047	-160.666	-87.2735	-57.7138	-153.29	-84.4277	-85.7136	-157.639	-84.4195	-19.0496	-147.357	-83.0217	-40.0559	-138.751	-82.4749	-59.5353	-181.494	-99.0538	16.0429	-186.035	-97.2116	40.9989	-216.429	-93.5455	23.2671	
11	0.0916667	-234.294	-63.4231	31.2097	-257.06	-68.7728	9.38351	-270.693	-72.0126	-16.2069	-277.798	-71.3257	-35.7685	-213.048	-80.3461	-49.7262	-211.705	-78.5745	-74.8171	-207.217	-79.2162	-95.9705	-194.564	-86.4006	-50.1341	-191.752	-84.2181	-76.8429	-190.784	-83.1235	-108.905	-167.071	-83.4841	-35.8017	-161.233	-80.547	-58.5237	-149.229	-78.5685	-81.9016	-155.684	-80.0478	-24.8044	-147.237	-76.7457	-38.5663	-133.401	-78.107	-60.4424	-180.273	-96.5366	13.0438	-183.191	-94.9918	42.3601	-217.08	-86.7031	19.595	
12	0.1	-232.264	-64.0661	25.4424	-249.37	-65.4781	5.04474	-268.989	-68.5029	-18.9316	-279.601	-69.1345	-37.0281	-211.412	-78.2054	-52.6884	-211.319	-76.1111	-76.0304	-206.069	-76.4996	-97.1079	-193.99	-83.6175	-53.8784	-189.627	-81.3619	-80.045	-187.237	-80.5048	-106.772	-163.363	-82.1091	-38.5035	-159.297	-78.2888	-63.4168	-147.423	-75.454	-85.2494	-150.849	-77.8897	-21.11	-143.657	-74.5191	-38.8062	-133.276	-76.0215	-62.9818	-182.222	-92.074	8.98888	-184.896	-92.2232	42.1835	-213.928	-85.1015	20.2793	
13	0.108333	-233.285	-62.4886	27.7489	-252.361	-67.4807	3.23796	-266.757	-70.7447	-22.1347	-277.135	-69.5437	-40.8545	-206.462	-79.5102	-49.1598	-207.035	-77.879	-73.5557	-202.201	-77.1425	-101.871	-190.483	-85.6321	-55.9594	-189.397	-81.836	-80.5189	-187.238	-79.8141	-107.64	-163.76	-82.0375	-41.7901	-156.541	-78.6571	-59.9126	-146.877	-75.0988	-84.6347	-151.918	-78.8098	-26.3847	-140.154	-74.7354	-44.5976	-133.291	-75.0504	-63.7085	-179.742	-92.4793	8.69872	-183.736	-94.5958	39.0786	-213.589	-87.9963	21.3615	
14	0.116667	-233.34	-63.8123	27.0364	-249.556	-66.3459	5.97183	-264.712	-68.983	-20.5865	-272.196	-68.6152	-40.6785	-203.563	-78.9668	-52.0552	-202.449	-76.6946	-75.0339	-198.984	-74.6035	-101.219	-189.507	-83.7246	-52.6619	-187.77	-79.9216	-78.9551	-182.239	-78.1113	-112.557	-162.466	-81.0935	-40.6755	-153.512	-77.8192	-61.9335	-145.599	-73.1169	-84.0951	-145.793	-78.4737	-24.9009	-138.9	-75.1988	-39.6032	-128.399	-75.0391	-64.695	-174.934	-93.8534	12.5607	-182.14	-91.612	38.4214	-209.952	-87.4925	18.7229	
15	0.125	-231.676	-62.3203	26.4459	-247.053	-66.1381	2.69856	-262.61	-70.2702	-25.0281	-271.958	-66.4015	-39.9758	-204.709	-77.36	-50.9677	-204.459	-74.8115	-76.3435	-195.196	-74.7136	-103.51	-184.964	-83.8837	-51.4374	-186.262	-79.0584	-81.6735	-182.177	-77.191	-108.865	-160.109	-80.7156	-38.3537	-153.526	-76.2691	-60.2623	-141.462	-72.4747	-84.0356	-144.057	-77.809	-22.9042	-139.021	-73.8847	-40.9104	-129.991	-73.6763	-63.4676	-175.493	-91.5678	9.38085	-181.074	-91.6021	39.4544	-210.796	-87.8071	15.8003	
16	0.133333	-231.057	-61.7319	27.8417	-247.226	-66.4446	0.173623	-259.289	-67.7382	-22.9956	-270.066	-68.2538	-44.3378	-202.547	-75.9668	-48.8762	-198.205	-73.0316	-77.7482	-194.8	-72.8494	-100.684	-181.344	-81.4918	-49.9955	-179.512	-77.998	-78.8533	-177.507	-75.3116	-107.637	-161.041	-77.8856	-40.4716	-148.949	-75.7418	-61.7324	-138.439	-71.9061	-87.5886	-143.81	-75.2092	-23.918	-136.816	-72.1505	-39.7072	-127.867	-71.1822	-60.3929	-174.367	-90.9594	13.8137	-180.575	-92.1741	37.612	-207.341	-86.9576	15.6451	
